# xmcd CD database file
#
# Track frame offsets:
#	150
#	24900
#	46590
#	65177
#	84302
#	111515
#	140267
#	162392
#	186917
#	208292
#	222252
#
# Disc length: 3197 seconds
#
# Revision: 0
# Processed by: cddbd v1.5.1PL0 Copyright (c) Steve Scherf et al.
# Submitted via: CDex 1.51
#
DISCID=9f0c7b0b
DTITLE=Artisti Vari - Soundscapes
DYEAR=1997
DGENRE=New Age
TTITLE0=Dave Hoffman - Evening Evershine
TTITLE1=Eleven of Hearts - Knight of Love
TTITLE2=Potsch Potschka - Baila Verema
TTITLE3=Suzanne Ciani - Hotel Luna
TTITLE4=Felix Jay and Nicola Alesini - Fireflies
TTITLE5=Paul Adams - The Swing Reel Fantasy
TTITLE6=Clannad - Broken Pieces
TTITLE7=Paul Adams - Mr. Kits Casbah
TTITLE8=Dave Hoffman - The Province of the Plains
TTITLE9=Oystein Sevag - Rio Amazonas
TTITLE10=Eleven of Hearts - HK Boogie
EXTD=YEAR: 1997
EXTT0=
EXTT1=
EXTT2=
EXTT3=
EXTT4=
EXTT5=
EXTT6=
EXTT7=
EXTT8=
EXTT9=
EXTT10=
PLAYORDER=
